<svg xmlns="http://www.w3.org/2000/svg" height="1200" width="1600" version="1.1" xmlns:xlink="http://www.w3.org/1999/xlink" xmlns:svgjs="http://svgjs.com/svgjs"><rect fill="#ffffff" width="1600" height="1200"></rect><g><path d="M1194.24 584.58L1222.97 561.94 1212.15 595.73 1245.6 599.65 1216.45 616.33 1230.43 644.25 1199.77 629.51 1185.45 664.24 1178.32 628.23 1140.94 634.75 1168.25 611.37 1143.21 594.26 1175.44 592.56 1173.03 557.83 1194.24 584.58Z" stroke="#778bfe" stroke-width="4" stroke-linecap="round" stroke-linejoin="round" opacity="1" fill="none"></path></g><g><path d="M498.84 854.82L510.14 789.82 445.14 801.12 460.14 816.22 432.84 843.52 456.44 867.12 483.74 839.82 498.84 854.82Z" fill="#61ccff" opacity="1" stroke-width="4" stroke="none"></path></g><g><path d="M1102.73 155.08L1136.05 204.12 1052.46 260.07 1102.73 155.08Z" fill="#61ccff" opacity="1" stroke-width="4" stroke="none"></path></g><g><path d="M847.44 167.1H393.99C363.28 167.1 338.45 191.93 338.45 222.63V648.66C338.45 679.37 363.28 704.2 393.99 704.2H847.44C878.14 704.2 902.97 679.37 902.97 648.66V222.63C902.97 191.93 878.04 167.1 847.44 167.1Z" fill="#778bfe" opacity="1" stroke-width="4" stroke="none"></path><path d="M399.17 265.71C411.79 265.71 422.01 255.49 422.01 242.87 422.01 230.26 411.79 220.04 399.17 220.04 386.56 220.04 376.34 230.26 376.34 242.87 376.34 255.49 386.56 265.71 399.17 265.71Z" fill="#ffffff" opacity="1" stroke-width="4" stroke="none"></path><path d="M465.48 265.71C478.09 265.71 488.31 255.49 488.31 242.87 488.31 230.26 478.09 220.04 465.48 220.04 452.86 220.04 442.64 230.26 442.64 242.87 442.64 255.49 452.86 265.71 465.48 265.71Z" fill="#ffffff" opacity="1" stroke-width="4" stroke="none"></path><path d="M531.88 265.71C544.49 265.71 554.71 255.49 554.71 242.87 554.71 230.26 544.49 220.04 531.88 220.04 519.26 220.04 509.05 230.26 509.05 242.87 509.05 255.49 519.26 265.71 531.88 265.71Z" fill="#ffffff" opacity="1" stroke-width="4" stroke="none"></path></g><g><path d="M1216.35 490.77H1087.52C1058.16 490.77 1034.37 466.98 1034.37 437.62 1034.37 434.6 1034.6 431.7 1035.07 428.68L1047.83 353.36C1050.15 339.44 1062.34 329.11 1076.5 329.11H1227.37C1241.53 329.11 1253.6 339.32 1256.04 353.36L1268.8 428.68C1273.68 457.58 1254.18 485.09 1225.28 489.96 1222.38 490.54 1219.36 490.77 1216.35 490.77Z" fill="#ffc930" opacity="1" stroke-width="4" stroke="none"></path><path d="M1039.94 400.13L1036.11 422.88C1065.01 416.73 1106.09 412.9 1151.47 412.9 1197.55 412.9 1238.98 416.85 1267.99 423.23L1264.05 400.13H1039.94Z" fill="#000000" opacity="0.2" stroke-width="4" stroke="none"></path><path d="M1135.69 328.76C1144.66 328.76 1151.94 321.48 1151.94 312.51 1151.94 303.54 1144.66 296.26 1135.69 296.26 1126.72 296.26 1119.44 303.54 1119.44 312.51 1119.44 321.48 1126.72 328.76 1135.69 328.76Z" fill="#778bfe" opacity="1" stroke-width="4" stroke="none"></path><path d="M1168.18 328.76C1177.16 328.76 1184.43 321.48 1184.43 312.51 1184.43 303.54 1177.16 296.26 1168.18 296.26 1159.21 296.26 1151.94 303.54 1151.94 312.51 1151.94 321.48 1159.21 328.76 1168.18 328.76Z" fill="#778bfe" opacity="1" stroke-width="4" stroke="none"></path><path d="M1039.94 400.71H1263.93" stroke="#000000" stroke-width="4" stroke-linecap="round" stroke-linejoin="round" opacity="1" fill="none"></path><path d="M1151.94 434.95V400.71" stroke="#b8b8b8" stroke-width="4" stroke-linecap="round" stroke-linejoin="round" opacity="1" fill="none"></path></g><g><path d="M539.88 1049.74H778.36L752.36 850.34H565.89L539.88 1049.74Z" fill="#ff9f29" opacity="1" stroke-width="4" stroke="none"></path><path d="M698.46 1033.44C711.11 1033.44 721.37 1023.19 721.37 1010.54 721.37 997.88 711.11 987.63 698.46 987.63 685.81 987.63 675.56 997.88 675.56 1010.54 675.56 1023.19 685.81 1033.44 698.46 1033.44Z" fill="#ffffff" opacity="1" stroke-width="4" stroke="none"></path><path d="M680.81 963.65C693.46 963.65 703.72 953.4 703.72 940.74 703.72 928.09 693.46 917.84 680.81 917.84 668.16 917.84 657.91 928.09 657.91 940.74 657.91 953.4 668.16 963.65 680.81 963.65Z" fill="#ffffff" opacity="1" stroke-width="4" stroke="none"></path><path d="M585.42 967.56C585.42 954.89 575.18 944.65 562.52 944.65 559.42 944.65 556.32 945.32 553.36 946.54L548.24 985.61C558.21 993.42 572.62 991.81 580.44 981.84 583.67 977.8 585.42 972.68 585.42 967.56Z" fill="#ffffff" opacity="1" stroke-width="4" stroke="none"></path><path d="M614.39 1018.21C601.73 1018.21 591.49 1028.45 591.49 1041.12 591.49 1044.08 592.03 1047.05 593.24 1049.74H635.54C640.26 1038.02 634.6 1024.68 622.88 1019.83 620.18 1018.75 617.35 1018.21 614.39 1018.21Z" fill="#ffffff" opacity="1" stroke-width="4" stroke="none"></path><path d="M712.07 871.22C723.93 871.22 733.76 862.2 734.84 850.34H689.17C690.38 862.2 700.22 871.22 712.07 871.22Z" fill="#ffffff" opacity="1" stroke-width="4" stroke="none"></path><path d="M745.22 953.81C745.22 966.48 755.46 976.72 768.12 976.72 768.39 976.72 768.52 976.72 768.79 976.72L762.87 931.45C752.49 933.87 745.22 943.17 745.22 953.81Z" fill="#ffffff" opacity="1" stroke-width="4" stroke="none"></path><path d="M610.48 912.85C623.13 912.85 633.39 902.6 633.39 889.95 633.39 877.3 623.13 867.05 610.48 867.05 597.83 867.05 587.58 877.3 587.58 889.95 587.58 902.6 597.83 912.85 610.48 912.85Z" fill="#ffffff" opacity="1" stroke-width="4" stroke="none"></path><path d="M620.32 889.41V906.39C620.32 927.94 637.83 945.46 659.39 945.46 680.95 945.46 698.46 927.94 698.46 906.39V889.41" stroke="#181818" stroke-width="4" stroke-linecap="round" stroke-linejoin="round" opacity="1" fill="none"></path></g><g><path d="M462.71 323.37H777.71C781.01 323.37 783.71 326.07 783.71 329.37 783.71 332.67 781.01 335.37 777.71 335.37H462.71C459.41 335.37 456.71 332.67 456.71 329.37 456.71 326.07 459.41 323.37 462.71 323.37Z" fill="#ffffff" opacity="1" stroke-width="4" stroke="none"></path><path d="M702.01 356.67C717.2 356.67 729.51 344.36 729.51 329.17 729.51 313.98 717.2 301.67 702.01 301.67 686.82 301.67 674.51 313.98 674.51 329.17 674.51 344.36 686.82 356.67 702.01 356.67Z" fill="#231f20" opacity="1" stroke-width="4" stroke="none"></path><path d="M462.31 447.87H777.31C780.61 447.87 783.31 450.57 783.31 453.87 783.31 457.17 780.61 459.87 777.31 459.87H462.31C459.01 459.87 456.31 457.17 456.31 453.87 456.31 450.57 459.01 447.87 462.31 447.87Z" fill="#ffffff" opacity="1" stroke-width="4" stroke="none"></path><path d="M612.91 491.47C628.1 491.47 640.41 479.16 640.41 463.97 640.41 448.78 628.1 436.47 612.91 436.47 597.72 436.47 585.41 448.78 585.41 463.97 585.41 479.16 597.72 491.47 612.91 491.47Z" fill="#423615" opacity="0.2" stroke-width="4" stroke="none"></path><path d="M612.91 481.67C628.1 481.67 640.41 469.36 640.41 454.17 640.41 438.98 628.1 426.67 612.91 426.67 597.72 426.67 585.41 438.98 585.41 454.17 585.41 469.36 597.72 481.67 612.91 481.67Z" fill="#ffc930" opacity="1" stroke-width="4" stroke="none"></path></g><g><path d="M492.35 653.13C515.11 653.13 533.55 634.69 533.55 611.93 533.55 589.18 515.11 570.73 492.35 570.73 469.59 570.73 451.15 589.18 451.15 611.93 451.15 634.69 469.59 653.13 492.35 653.13Z" fill="#ff9f29" opacity="1" stroke-width="4" stroke="none"></path><path d="M505.8 598.91C503.29 596.03 499.66 594.38 495.82 594.32 487.6 594.32 480.98 602.22 480.98 611.93 480.98 621.65 487.65 629.54 495.82 629.54 499.66 629.49 503.24 627.84 505.8 624.96" stroke="#ffffff" stroke-width="4" stroke-linecap="round" stroke-linejoin="round" opacity="1" fill="none"></path><path d="M474.58 607.13H496.99" stroke="#ffffff" stroke-width="4" stroke-linecap="round" stroke-linejoin="round" opacity="1" fill="none"></path><path d="M474.58 616.74H496.99" stroke="#ffffff" stroke-width="4" stroke-linecap="round" stroke-linejoin="round" opacity="1" fill="none"></path></g><g><path d="M651.01 642.15C667.34 625.81 667.34 599.33 651.01 583 634.67 566.66 608.19 566.66 591.86 583 575.52 599.33 575.52 625.81 591.86 642.15 608.19 658.48 634.67 658.48 651.01 642.15Z" fill="#ffffff" opacity="1" stroke-width="4" stroke="none"></path><path d="M621.59 587.34V595.03" stroke="#231f20" stroke-width="4" stroke-linecap="round" stroke-linejoin="round" opacity="1" fill="none"></path><path d="M621.59 630.14V637.83" stroke="#231f20" stroke-width="4" stroke-linecap="round" stroke-linejoin="round" opacity="1" fill="none"></path><path d="M629.56 595.19H618.29C613.9 595.19 610.33 598.77 610.33 603.16 610.33 606.68 612.66 609.77 616.01 610.8L626.63 613.94C630.15 614.97 632.54 618.22 632.54 621.85 632.54 626.4 628.85 630.08 624.3 630.08H612.22" stroke="#231f20" stroke-width="4" stroke-linecap="round" stroke-linejoin="round" opacity="1" fill="none"></path></g><g><path d="M745.01 653.15C767.77 653.15 786.21 634.7 786.21 611.95 786.21 589.19 767.77 570.75 745.01 570.75 722.25 570.75 703.81 589.19 703.81 611.95 703.81 634.7 722.25 653.15 745.01 653.15Z" fill="#ffc930" opacity="1" stroke-width="4" stroke="none"></path><path d="M753.23 632.55L752.21 625.4C751.41 619.58 746.4 615.2 740.53 615.2H743.62C749.01 615.15 753.28 610.72 753.23 605.38 753.28 599.99 749.01 595.62 743.62 595.56H757.23" stroke="#ffffff" stroke-width="4" stroke-linecap="round" stroke-linejoin="round" opacity="1" fill="none"></path><path d="M757.23 605.33H734.92" stroke="#ffffff" stroke-width="4" stroke-linecap="round" stroke-linejoin="round" opacity="1" fill="none"></path></g><g><path d="M372.95 521.62L395.39 499.18 435.12 538.91C441.32 545.12 441.32 555.14 435.12 561.35 428.92 567.55 418.89 567.55 412.68 561.35L372.95 521.62Z" fill="#61ccff" stroke-linejoin="round" opacity="1" stroke-width="4" stroke="none"></path><path d="M435.12 549.08C428.92 555.29 418.89 555.29 412.68 549.08L379.11 515.51 372.95 521.63 412.68 561.36C418.89 567.57 428.92 567.57 435.12 561.36 439.84 556.65 440.94 549.76 438.52 543.98 437.75 545.85 436.61 547.55 435.12 549.08Z" fill="#121212" opacity="0.2" stroke-width="4" stroke="none"></path><path d="M371.73 487.82L361.55 498.01 379.06 515.52 389.25 505.34 371.73 487.82Z" fill="#61ccff" opacity="1" stroke-width="4" stroke="none"></path><path d="M380.3 512.31C373.76 506.45 371.55 497.61 374.18 490.26L371.72 487.8 361.52 497.99 379.03 515.5 381.32 513.21C381.02 512.91 380.64 512.61 380.3 512.31Z" fill="#121212" opacity="0.2" stroke-width="4" stroke="none"></path><path d="M366.66 397.15C391.9 421.54 394.37 461.15 372.36 488.47 371.12 490 369.81 491.49 368.4 492.93 366.49 494.93 364.41 496.84 362.24 498.58 333.18 522.13 290.51 517.58 266.97 488.51 243.43 459.45 247.98 416.78 277.04 393.24 303.64 371.74 342.06 373.44 366.66 397.15Z" fill="#61ccff" opacity="1" stroke-width="4" stroke="none"></path><path d="M319.62 493.49C345.88 493.49 367.17 472.2 367.17 445.93 367.17 419.67 345.88 398.38 319.62 398.38 293.36 398.38 272.07 419.67 272.07 445.93 272.07 472.2 293.36 493.49 319.62 493.49Z" fill="#ffffff" opacity="1" stroke-width="4" stroke="none"></path><path d="M395.36 499.14C401.39 505.47 401.14 515.5 394.81 521.53 388.69 527.35 379.04 527.4 372.92 521.57L395.36 499.14Z" fill="#ffc930" stroke-linejoin="round" opacity="1" stroke-width="4" stroke="none"></path><path d="M342.44 453.29C346.43 453.29 349.66 450.05 349.66 446.06 349.66 442.07 346.43 438.84 342.44 438.84 338.45 438.84 335.22 442.07 335.22 446.06 335.22 450.05 338.45 453.29 342.44 453.29Z" fill="#ffaede" opacity="1" stroke-width="4" stroke="none"></path><path d="M319.88 453.29C323.87 453.29 327.1 450.05 327.1 446.06 327.1 442.07 323.87 438.84 319.88 438.84 315.89 438.84 312.65 442.07 312.65 446.06 312.65 450.05 315.89 453.29 319.88 453.29Z" fill="#ffaede" opacity="1" stroke-width="4" stroke="none"></path><path d="M303.71 449.41C305.56 445.88 304.2 441.51 300.67 439.66 297.13 437.81 292.77 439.17 290.91 442.71 289.06 446.24 290.42 450.61 293.96 452.46 297.49 454.31 301.86 452.95 303.71 449.41Z" fill="#ffaede" opacity="1" stroke-width="4" stroke="none"></path><path d="M395.94 543.93L417.91 521.91" stroke="#121212" stroke-width="4" stroke-linecap="round" stroke-linejoin="round" opacity="1" fill="none"></path><path d="M402.87 550.85L424.88 528.84" stroke="#121212" stroke-width="4" stroke-linecap="round" stroke-linejoin="round" opacity="1" fill="none"></path><path d="M409.79 557.78L431.8 535.77" stroke="#121212" stroke-width="4" stroke-linecap="round" stroke-linejoin="round" opacity="1" fill="none"></path><path d="M372.44 488.51C371.21 490.04 369.89 491.53 368.49 492.98 366.53 494.97 364.49 496.88 362.33 498.63" stroke="#121212" stroke-width="4" stroke-linecap="round" stroke-linejoin="round" opacity="1" fill="none"></path></g><g><path d="M974.8 365.88L977.27 364.91 977.92 364.48C978.45 362.01 978.88 359.75 979.1 356.95 980.71 341.36 978.56 323.29 979.85 315.55L980.5 311.03C983.29 296.4 983.4 275.86 967.59 261.56 957.59 252.63 955.54 257.47 940.59 257.47 932.74 257.47 934.79 256.61 927.47 259.51 917.79 263.17 901.02 255.64 896.39 263.49 891.98 270.91 888.76 280.81 885.1 291.89L884.56 293.82C878.65 294.68 875.31 296.29 874.77 298.55 873.81 302.32 878.43 308.34 879.18 309.42 879.18 309.52 879.18 309.52 879.18 309.63 872.95 329.1 873.16 339.85 879.83 349.21 884.02 355.02 892.41 358.35 902.41 358.35 905.96 358.35 909.51 357.81 912.95 356.85 913.06 356.85 913.28 356.95 913.28 357.06L912.2 364.48C912.2 364.48 912.42 364.8 912.42 364.91V365.77C912.42 365.88 912.52 365.88 912.63 365.88L972.32 365.99 974.8 365.88Z" fill="#eaa58b" opacity="1" stroke-width="4" stroke="none"></path><path d="M931.78 356.52C932.31 355.66 932.1 354.59 931.78 353.51 930.92 350.61 926.72 350.5 926.4 350.61L913.6 356.74H913.38L912.2 364.48 912.74 365.45 926.18 365.99 931.78 356.52Z" fill="#222120" opacity="0.3" stroke-width="4" stroke="none"></path><path d="M787.66 410.19L781.85 402.45C781.85 402.45 776.37 395.99 752.49 377.17 737 364.7 710.11 351.36 690.97 351.36 689.57 351.36 688.07 351.47 686.67 351.58 682.37 352.11 679.46 353.51 677.74 356.2 674.3 356.74 671.61 358.24 670.54 360.4 669.46 362.33 669.57 364.91 670.86 367.49 670.21 368.25 666.88 372.12 670.43 377.71 673.87 382.98 694.09 394.27 694.3 394.38 691.18 393.95 688.07 393.74 684.95 393.74 677.31 393.74 671.5 395.24 669.35 397.72 668.49 398.68 668.38 400.08 669.03 401.26 670.64 404.6 682.15 408.69 706.03 414.39 714.63 429.55 730.23 438.05 731.41 438.58L733.99 442.78 743.56 455.25 787.66 410.19Z" fill="#eaa58b" opacity="1" stroke-width="4" stroke="none"></path><path d="M979.21 356.85C979.21 356.85 985.87 319.85 986.95 313.29L987.06 312.54C989.85 297.91 995.02 270.7 979.21 256.39 969.2 247.47 954.79 242.3 939.73 242.3 931.67 242.3 923.82 243.81 916.61 246.61 908.11 249.62 901.02 255.64 896.45 263.36 896.2 263.99 898.76 273.17 909.62 273.17 911.02 273.17 912.42 272.96 912.34 273.78 912.85 274.57 909.62 281.24 911.99 285.43 913.28 287.58 915.75 288.66 919.52 288.66 921.56 288.66 923.6 288.44 923.4 288.58 920.38 304.36 930.49 312.97 932.53 314.47L932.85 314.79 933.07 314.58C933.17 314.47 944.68 303.82 954.79 303.82H955.11C958.99 303.82 962.54 305.87 964.79 309.2 973.72 322.11 951.67 344.69 951.67 344.69 959.31 356.63 978.56 356.95 978.67 356.95L979.21 356.85Z" fill="#231f20" opacity="1" stroke-width="4" stroke="none"></path><path d="M1021.15 582.06C1043.31 570.44 1062.88 540.43 1057.4 505.59 1054.6 487.41 1047.61 463.32 1038.04 439.44 1029.32 417.4 1020.07 399.54 1013.84 392.77 999.64 377.17 979.1 373.62 976.73 373.3 977.05 371.8 977.92 364.48 977.92 364.48H912.2L909.73 377.17C909.62 377.17 909.51 377.17 909.41 377.17H908.76C908.44 377.17 908.01 377.17 907.58 377.17 891.12 377.17 857.24 385.35 815.73 439.66 814.01 437.62 799.27 420.73 781.96 402.55L781.85 402.45 733.99 442.78C747.65 470.53 776.37 517.53 814.76 519.79 815.51 519.79 816.27 519.89 817.02 519.89 830.89 519.89 846.6 512.58 857.24 506.34 864.13 502.36 870.69 497.95 877.03 493.11L889.94 552.05 890.37 553.13 994.16 553.13C995.12 553.77 1008.57 563.45 1020.94 581.95L1021.15 582.06Z" fill="#ff9f29" opacity="1" stroke-width="4" stroke="none"></path><path d="M1021.15 582.06C1029.11 577.97 1035.99 571.95 1041.48 564.96L1041.15 564.63C1031.37 556.78 1024.7 545.7 1022.23 533.34 1020.61 524.63 1019.54 515.81 1018.89 506.99 1017.6 491.61 1016.63 480.53 1009.1 480.53L1004.8 480.74 993.08 551.73 992.76 551.94C1003.62 560.33 1013.08 570.55 1020.61 581.95L1020.72 582.06H1021.15Z" fill="#f59621" opacity="0.3" stroke-width="4" stroke="none"></path><path d="M1002.44 932.24V931.38C1002.22 912.99 1000.72 894.71 997.92 876.53 996.09 864.49 993.51 853.08 990.28 839.43L989.85 837.49C985.77 820.17 981.57 802.21 979.74 781.03 978.45 766.61 979.21 751.56 982 732.31 992.76 755.75 1005.02 778.55 1018.68 800.39 1027.5 814.37 1038.36 829.64 1049.87 845.88 1067.61 870.94 1085.79 896.54 1098.69 920.52L1099.45 920.95 1174.95 960.96 1186.35 882.77 1185.92 881.48C1178.39 864.7 1169.57 848.68 1159.89 833.08 1153.44 822.76 1146.55 813.29 1138.17 802 1134.4 796.84 1130.21 791.78 1125.8 786.51 1117.62 776.62 1109.13 766.4 1101.81 754.03 1085.14 725.85 1076.11 708.54 1066.32 680.9 1046.53 624.75 1027.39 576.36 993.08 551.73H992.97 929.62L889.94 552.05 889.83 552.37C883.38 577.43 869.72 686.27 884.78 796.08 886.28 806.62 889.08 826.3 892.2 847.38 896.07 872.77 900.8 905.25 904.57 931.92L904.67 932.35 959.74 996.45 1002.44 932.24Z" fill="#61ccff" opacity="1" stroke-width="4" stroke="none"></path><path d="M1140.42 942.14C1140.21 941.6 1118.38 890.62 1057.83 815.12 1031.48 782.21 1022.33 736.28 1015.77 702.62 1010.4 675.41 1006.52 655.84 996.41 655.84H994.37C992.86 681.22 982.11 731.45 982.11 731.45L982 732.31C992.76 755.97 1004.8 778.34 1018.68 800.39 1027.5 814.37 1038.36 829.75 1049.87 845.99 1067.61 871.05 1085.79 896.54 1098.69 920.52L1099.23 920.95 1140.75 942.78 1140.42 942.14Z" fill="#353839" opacity="0.3" stroke-width="4" stroke="none"></path><path d="M1216.36 976.45L1216.57 975.69C1216.57 975.59 1216.57 975.48 1216.57 975.37 1209.58 943.64 1199.58 912.67 1186.46 882.98L1186.35 882.77 1176.45 887.07C1166.24 891.48 1159.78 901.59 1160.11 912.67L1160.64 929.66C1160.64 930.2 1160.11 930.41 1159.68 930.2L1142.36 916.86C1137.63 913.21 1131.82 911.27 1125.9 911.27 1122.25 911.27 1118.59 912.02 1115.15 913.53L1098.69 920.52 1098.91 920.84C1114.07 949.13 1118.7 969.67 1113 984.08 1109.13 993.98 1102.46 1006.56 1098.05 1014.95 1097.08 1016.78 1096.22 1018.39 1095.58 1019.68 1093.96 1022.69 1092.78 1025.92 1092.13 1029.25L1092.56 1029.9 1216.03 976.77C1216.14 976.77 1216.25 976.55 1216.36 976.45Z" fill="#231f20" opacity="1" stroke-width="4" stroke="none"></path><path d="M987.81 1033.45L993.19 1030.33C993.29 1030.22 993.4 1030.11 993.4 1030.01 999.64 997.85 1002.54 965.15 1002.33 932.46V932.24H990.39C980.28 932.24 971.14 938.59 967.7 948.16L960.92 966.55C960.81 966.98 960.28 966.98 960.06 966.66L947.16 944.4C942.85 936.97 934.89 932.35 926.29 932.35H905.21C904.78 932.35 904.57 932.67 904.57 933.1 908.76 963.54 905.43 985.69 894.89 996.88 887.9 1004.3 877.57 1012.58 869.93 1018.61 868 1020.22 866.17 1021.62 864.77 1022.69 862.08 1024.84 859.61 1027.32 857.57 1030.11V1030.22L858.75 1031.73 985.77 1033.77H985.87L987.38 1033.45C987.81 1033.45 987.81 1033.45 987.81 1033.45Z" fill="#231f20" opacity="1" stroke-width="4" stroke="none"></path><path d="M982 732.31C988.13 685.31 997.38 676.49 993.08 632.39" stroke="#353839" stroke-width="4" stroke-linecap="round" stroke-linejoin="round" opacity="1" fill="none"></path><path d="M1032.23 599.16H1007.06" stroke="#353839" stroke-width="4" stroke-linecap="round" stroke-linejoin="round" opacity="1" fill="none"></path><path d="M972.97 599.16H927.15" stroke="#353839" stroke-width="4" stroke-linecap="round" stroke-linejoin="round" opacity="1" fill="none"></path><path d="M913.49 356.74C919.62 354.26 926.4 350.61 926.4 350.61" stroke="#222120" stroke-width="4" stroke-linecap="round" stroke-linejoin="round" opacity="1" fill="none"></path><path d="M947.91 322.64L942.53 328.02" stroke="#222120" stroke-width="4" stroke-linecap="round" stroke-linejoin="round" opacity="1" fill="none"></path><path d="M896.93 314.79C893.81 317.59 889.72 318.88 885.53 318.34" stroke="#222120" stroke-width="4" stroke-linecap="round" stroke-linejoin="round" opacity="1" fill="none"></path><path d="M895.75 298.98C894.26 298.98 893.06 297.78 893.06 296.29 893.06 294.81 894.26 293.61 895.75 293.61 897.23 293.61 898.44 294.81 898.44 296.29 898.44 297.78 897.23 298.98 895.75 298.98Z" fill="#231f20" opacity="1" stroke-width="4" stroke="none"></path><path d="M1007.06 466.76L993.08 551.73 889.94 552.05" stroke="#f59621" stroke-width="4" stroke-linecap="round" stroke-linejoin="round" opacity="1" fill="none"></path><path d="M1018.89 522.26L998.78 516.88" stroke="#f59621" stroke-width="4" stroke-linecap="round" stroke-linejoin="round" opacity="1" fill="none"></path><path d="M877.14 492.68L904.89 471.06" stroke="#f59621" stroke-width="4" stroke-linecap="round" stroke-linejoin="round" opacity="1" fill="none"></path><path d="M815.84 439.98L811.32 468.91" stroke="#f59621" stroke-width="4" stroke-linecap="round" stroke-linejoin="round" opacity="1" fill="none"></path><path d="M1113.54 956.44L1135.05 951.82" stroke="#000000" stroke-width="4" stroke-linecap="round" stroke-linejoin="round" opacity="1" fill="none"></path><path d="M1115.15 974.83L1135.26 976.98" stroke="#000000" stroke-width="4" stroke-linecap="round" stroke-linejoin="round" opacity="1" fill="none"></path><path d="M905.75 971.61L926.51 975.8" stroke="#000000" stroke-width="4" stroke-linecap="round" stroke-linejoin="round" opacity="1" fill="none"></path><path d="M901.34 987.09L919.19 999.14" stroke="#000000" stroke-width="4" stroke-linecap="round" stroke-linejoin="round" opacity="1" fill="none"></path><path d="M677.74 356.2C693.01 360.5 708.29 365.23 723.13 371.04" stroke="#222120" stroke-width="4" stroke-linecap="round" stroke-linejoin="round" opacity="1" fill="none"></path><path d="M670.86 367.49C689.14 371.8 714.52 383.95 714.52 383.95" stroke="#222120" stroke-width="4" stroke-linecap="round" stroke-linejoin="round" opacity="1" fill="none"></path><path d="M694.3 394.38L706.99 399.01" stroke="#222120" stroke-width="4" stroke-linecap="round" stroke-linejoin="round" opacity="1" fill="none"></path><path d="M902.2 486.55C902.95 484.83 902.74 483 901.66 481.5 900.59 479.99 898.87 479.02 897.04 479.02 895.85 479.02 894.67 479.45 893.7 480.21L877.03 493.11 884.78 529.25 902.2 486.55Z" fill="#f59621" opacity="0.3" stroke-width="4" stroke="none"></path><path d="M1219.9 994.94C1219.26 988.92 1217 977.74 1216.68 975.8 1216.68 975.69 1216.46 975.59 1216.36 975.69L1092.13 1029.25V1029.36C1090.63 1036.03 1091.27 1042.91 1094.07 1049.15L1094.18 1049.37 1219.9 994.94Z" fill="#8d8d8d" opacity="1" stroke-width="4" stroke="none"></path><path d="M988.89 1049.15C990.61 1043.45 992.97 1032.16 993.4 1030.44 993.4 1030.33 993.29 1030.22 993.19 1030.22H857.78 857.67C853.8 1035.71 851.65 1042.37 851.76 1049.04V1049.26L988.89 1049.15Z" fill="#8d8d8d" opacity="1" stroke-width="4" stroke="none"></path><path d="M1160.64 930.95L1180.76 991.18" stroke="#000000" stroke-width="4" stroke-linecap="round" stroke-linejoin="round" opacity="1" fill="none"></path><path d="M960.71 967.52L954.25 1030.33" stroke="#000000" stroke-width="4" stroke-linecap="round" stroke-linejoin="round" opacity="1" fill="none"></path></g></svg>